<svg width="85" height="85" viewBox="0 0 85 85" fill="none" xmlns="http://www.w3.org/2000/svg">
<ellipse cx="42.3987" cy="42.5" rx="42.1554" ry="42.5" fill="#00B074" fill-opacity="0.15"/>
<path d="M36.2165 19.8311L12.8998 29.4495L36.2165 39.0679L59.5332 29.4495L36.2165 19.8311Z" fill="#00B074"/>
<path d="M26.7526 23.7553L22.364 25.5251L45.6807 35.1819L50.0312 33.3737L26.7526 23.7553Z" fill="#F7C604"/>
<path d="M12.8998 29.4495V55.9578L36.2165 65.5761V39.0679L12.8998 29.4495Z" fill="#0A5239"/>
<path d="M59.5331 29.4495V55.9578L36.2164 65.5761V39.0679L59.5331 29.4495Z" fill="#00D68D"/>
<path opacity="0.1" d="M59.5332 42.9922C58.8463 42.8383 58.1594 42.7614 57.4343 42.7614C51.7864 42.7614 47.207 47.3782 47.207 53.0723C47.207 55.7269 48.1992 58.1508 49.8402 59.959L59.5332 55.9578V42.9922Z" fill="#0C1E5B"/>
<path d="M45.6805 35.182V46.3008L50.031 44.4926V33.3737L45.6805 35.182Z" fill="#F7C604"/>
<path d="M61.5939 62.6136C67.2423 62.6136 71.8212 57.9973 71.8212 52.3027C71.8212 46.6082 67.2423 41.9918 61.5939 41.9918C55.9455 41.9918 51.3666 46.6082 51.3666 52.3027C51.3666 57.9973 55.9455 62.6136 61.5939 62.6136Z" fill="#FF5B5B"/>
<path d="M60.5255 56.304C60.2203 56.304 59.9531 56.1886 59.7241 55.9577L56.4804 52.6875C56.0225 52.2258 56.0225 51.4948 56.4804 51.0716C56.9384 50.6099 57.6634 50.6099 58.0832 51.0716L60.5255 53.5339L65.1049 48.9171C65.5629 48.4554 66.2879 48.4554 66.7077 48.9171C67.1657 49.3787 67.1657 50.1097 66.7077 50.533L61.3269 55.9577C61.098 56.1886 60.8308 56.304 60.5255 56.304Z" fill="white"/>
<path d="M20.4557 52.3797L17.9371 47.1473L15.571 50.2637L16.8685 50.8408V54.2265L18.9674 55.1883V51.7642L20.4557 52.3797Z" fill="#F2F5F3"/>
</svg>
