<svg width="86" height="85" viewBox="0 0 86 85" fill="none" xmlns="http://www.w3.org/2000/svg">
<ellipse cx="43.1283" cy="42.5" rx="42.1554" ry="42.5" fill="#00B074" fill-opacity="0.15"/>
<path d="M42.6866 23.9521C42.0929 23.9521 41.6264 23.4818 41.6264 22.8832V20.1896C41.6264 17.2822 39.2939 14.9306 36.4525 14.9306C35.053 14.9306 33.7807 15.4865 32.7629 16.4698C31.7451 17.4532 31.2362 18.7786 31.2362 20.1896V22.8832C31.2362 23.4818 30.7697 23.9521 30.1759 23.9521C29.5822 23.9521 29.1157 23.4818 29.1157 22.8832V20.1896C29.1157 18.2228 29.8791 16.3843 31.2362 14.9734C32.6357 13.5624 34.4592 12.7928 36.4101 12.7928C40.4389 12.7928 43.7044 16.085 43.7044 20.1468V22.8404C43.7468 23.4818 43.2803 23.9521 42.6866 23.9521Z" fill="#FFD497"/>
<path d="M59.3531 59.9952H28.4369L23.3054 20.0614H57.1902L59.3531 59.9952Z" fill="#00B074"/>
<path d="M28.4369 59.9952L21.1001 58.7125L13.7209 59.9952L15.9262 20.0614H26.2316L28.4369 59.9952Z" fill="#0A5239"/>
<path d="M41.8805 33.8287C37.8517 33.8287 34.5862 30.5365 34.5862 26.4747V23.7811C34.5862 23.1825 35.0527 22.7122 35.6464 22.7122C36.2401 22.7122 36.7066 23.1825 36.7066 23.7811V26.4747C36.7066 29.3821 39.0391 31.6909 41.8805 31.6909C44.7219 31.6909 47.0968 29.3393 47.0968 26.4319V23.7383C47.0968 23.1397 47.5633 22.6694 48.1571 22.6694C48.7508 22.6694 49.2173 23.1397 49.2173 23.7383V26.4319C49.2173 30.5365 45.9518 33.8287 41.8805 33.8287Z" fill="white"/>
<path opacity="0.1" d="M43.7891 54.5224C43.7891 56.4892 44.298 58.3704 45.1886 59.9952H59.3956L58.505 43.577C57.4448 43.2349 56.3421 43.0639 55.1971 43.0639C48.8781 43.0639 43.7891 48.1946 43.7891 54.5224Z" fill="#0C1E5B"/>
<path d="M61.0919 65.9809C67.369 65.9809 72.4575 60.8508 72.4575 54.5224C72.4575 48.1941 67.369 43.0639 61.0919 43.0639C54.8149 43.0639 49.7263 48.1941 49.7263 54.5224C49.7263 60.8508 54.8149 65.9809 61.0919 65.9809Z" fill="#FF6966"/>
<path d="M59.9044 58.9691C59.5651 58.9691 59.2682 58.8409 59.0138 58.5843L55.409 54.9501C54.9001 54.437 54.9001 53.6247 55.409 53.1544C55.9179 52.6413 56.7237 52.6413 57.1902 53.1544L59.9044 55.8907L64.9935 50.76C65.5024 50.247 66.3082 50.247 66.7747 50.76C67.2836 51.2731 67.2836 52.0855 66.7747 52.5558L60.795 58.5843C60.5405 58.8409 60.2013 58.9691 59.9044 58.9691Z" fill="white"/>
</svg>
